<?xml version="1.0" encoding="UTF-8"?>
<svg id="Camada_2" data-name="Camada 2" xmlns="http://www.w3.org/2000/svg" viewBox="0 0 567.01 196.92">
  <defs>
    <style>
      .cls-1 {
        fill: #fff;
        stroke-width: 0px;
      }
    </style>
  </defs>
  <g id="Camada_1-2" data-name="Camada 1">
    <g>
      <path class="cls-1" d="M40.04,173.76v14.59h-1.69v-14.59c0-1.4-1.15-2.56-2.59-2.56h-11.99c-1.44,0-2.59,1.15-2.59,2.56v14.59h-1.69v-14.59c0-1.4-1.15-2.56-2.59-2.56H2.33v17.14H.6v-18.87h16.28c1.4,0,2.66.68,3.46,1.73.76-1.05,2.02-1.73,3.42-1.73h11.99c2.38,0,4.29,1.94,4.29,4.29Z"/>
      <path class="cls-1" d="M72.9,173.76v14.59h-23.16c-2.38,0-4.29-1.91-4.29-4.29v-3.42c0-2.38,1.91-4.29,4.29-4.29h19.74v1.69h-19.74c-1.4,0-2.56,1.15-2.56,2.59v3.42c0,1.4,1.15,2.56,2.56,2.56h21.43v-12.86c0-1.4-1.15-2.56-2.56-2.56h-22.29v-1.73h22.29c2.34,0,4.29,1.94,4.29,4.29Z"/>
      <path class="cls-1" d="M105.76,188.35h-2.48l-7.92-7.64c-.32-.29-.68-.5-1.08-.68-.43-.18-.86-.25-1.3-.25h-12.93v8.57h-1.73v-27.44h1.73v17.14h12.93c.43,0,.86-.07,1.3-.25.4-.14.76-.4,1.08-.68l7.92-7.63h2.48l-9.8,9.44,9.8,9.44Z"/>
      <path class="cls-1" d="M135.08,178.05v-4.29c0-1.4-1.15-2.56-2.56-2.56h-18.87c-1.4,0-2.56,1.15-2.56,2.56v10.3c0,1.4,1.15,2.56,2.56,2.56h23.16v1.73h-23.16c-2.38,0-4.29-1.91-4.29-4.29v-10.3c0-2.34,1.91-4.29,4.29-4.29h18.87c2.34,0,4.29,1.94,4.29,4.29v6.01h-24.02v-1.73h22.29Z"/>
      <path class="cls-1" d="M185.88,169.48v23.16c0,2.38-1.94,4.29-4.29,4.29h-23.16v-1.69h23.16c1.4,0,2.56-1.19,2.56-2.59v-4.29h-21.43c-2.38,0-4.29-1.91-4.29-4.29v-14.59h1.73v14.59c0,1.4,1.15,2.56,2.56,2.56h21.43v-17.14h1.73Z"/>
      <path class="cls-1" d="M218.74,173.76v10.3c0,2.38-1.94,4.29-4.29,4.29h-18.87c-2.38,0-4.29-1.91-4.29-4.29v-10.3c0-2.34,1.91-4.29,4.29-4.29h18.87c2.34,0,4.29,1.94,4.29,4.29ZM217.01,173.76c0-1.4-1.15-2.56-2.56-2.56h-18.87c-1.4,0-2.56,1.15-2.56,2.56v10.3c0,1.4,1.15,2.56,2.56,2.56h18.87c1.4,0,2.56-1.15,2.56-2.56v-10.3Z"/>
      <path class="cls-1" d="M251.6,169.48v14.59c0,2.38-1.94,4.29-4.29,4.29h-18.87c-2.38,0-4.29-1.91-4.29-4.29v-14.59h1.73v14.59c0,1.4,1.15,2.56,2.56,2.56h18.87c1.4,0,2.56-1.15,2.56-2.56v-14.59h1.73Z"/>
      <path class="cls-1" d="M257.01,188.35v-14.59c0-2.34,1.91-4.29,4.29-4.29h12.86v1.73h-12.86c-1.4,0-2.56,1.15-2.56,2.56v14.59h-1.73Z"/>
      <path class="cls-1" d="M299.16,188.35c-2.38,0-4.29-1.91-4.29-4.29v-10.3c0-2.34,1.91-4.29,4.29-4.29h19.74v1.73h-19.74c-1.4,0-2.56,1.15-2.56,2.56v10.3c0,1.4,1.15,2.56,2.56,2.56h21.43v-25.72h1.73v27.44h-23.16Z"/>
      <path class="cls-1" d="M355.18,173.76v14.59h-23.16c-2.38,0-4.29-1.91-4.29-4.29v-3.42c0-2.38,1.91-4.29,4.29-4.29h19.74v1.69h-19.74c-1.4,0-2.56,1.15-2.56,2.59v3.42c0,1.4,1.15,2.56,2.56,2.56h21.43v-12.86c0-1.4-1.15-2.56-2.56-2.56h-22.29v-1.73h22.29c2.34,0,4.29,1.94,4.29,4.29Z"/>
      <path class="cls-1" d="M388.04,169.48v23.16c0,2.38-1.95,4.29-4.29,4.29h-23.16v-1.69h23.16c1.4,0,2.56-1.19,2.56-2.59v-4.29h-21.43c-2.38,0-4.29-1.91-4.29-4.29v-14.59h1.73v14.59c0,1.4,1.15,2.56,2.56,2.56h21.43v-17.14h1.73Z"/>
      <path class="cls-1" d="M435.38,178.05v-4.29c0-1.4-1.15-2.56-2.56-2.56h-18.87c-1.4,0-2.56,1.15-2.56,2.56v10.3c0,1.4,1.15,2.56,2.56,2.56h23.16v1.73h-23.16c-2.38,0-4.29-1.91-4.29-4.29v-10.3c0-2.34,1.91-4.29,4.29-4.29h18.87c2.34,0,4.29,1.94,4.29,4.29v6.01h-24.02v-1.73h22.29Z"/>
      <path class="cls-1" d="M469.96,173.76v14.59h-23.16c-2.38,0-4.29-1.91-4.29-4.29v-3.42c0-2.38,1.91-4.29,4.29-4.29h19.74v1.69h-19.74c-1.4,0-2.56,1.15-2.56,2.59v3.42c0,1.4,1.15,2.56,2.56,2.56h21.43v-12.86c0-1.4-1.15-2.56-2.56-2.56h-22.29v-1.73h22.29c2.34,0,4.29,1.94,4.29,4.29Z"/>
      <path class="cls-1" d="M476.24,188.35v-1.73h22.29c1.4,0,2.56-1.15,2.56-2.56v-1.73c0-1.41-1.15-2.56-2.56-2.56h-18.87c-2.38,0-4.29-1.91-4.29-4.29v-1.73c0-2.34,1.91-4.29,4.29-4.29h22.29v1.73h-22.29c-1.4,0-2.56,1.15-2.56,2.56v1.73c0,1.4,1.15,2.56,2.56,2.56h18.87c2.34,0,4.29,1.95,4.29,4.29v1.73c0,2.38-1.94,4.29-4.29,4.29h-22.29Z"/>
      <path class="cls-1" d="M509.96,164.32v1.73h-1.73v-1.73h1.73ZM508.23,169.48h1.73v18.87h-1.73v-18.87Z"/>
      <path class="cls-1" d="M541.08,178.05v-4.29c0-1.4-1.15-2.56-2.56-2.56h-18.87c-1.4,0-2.56,1.15-2.56,2.56v10.3c0,1.4,1.15,2.56,2.56,2.56h23.16v1.73h-23.16c-2.38,0-4.29-1.91-4.29-4.29v-10.3c0-2.34,1.91-4.29,4.29-4.29h18.87c2.34,0,4.29,1.94,4.29,4.29v6.01h-24.02v-1.73h22.29Z"/>
      <path class="cls-1" d="M548.23,188.35v-14.59c0-2.34,1.91-4.29,4.29-4.29h12.86v1.73h-12.86c-1.4,0-2.56,1.15-2.56,2.56v14.59h-1.73Z"/>
    </g>
    <g>
      <path class="cls-1" d="M162.08,52.84v59.95h-6.96v-59.95c0-5.77-4.74-10.51-10.66-10.51h-49.29c-5.92,0-10.66,4.74-10.66,10.51v59.95h-6.96v-59.95c0-5.77-4.74-10.51-10.66-10.51H7.1v70.46H0V35.23h66.9c5.77,0,10.95,2.81,14.21,7.1,3.11-4.29,8.29-7.1,14.06-7.1h49.29c9.77,0,17.61,7.99,17.61,17.61Z"/>
      <path class="cls-1" d="M297.05,35.23v104.5c0,9.77-7.99,17.61-17.61,17.61h-95.17v-6.96h95.17c5.77,0,10.51-4.88,10.51-10.66v-26.94h-88.07c-9.77,0-17.61-7.85-17.61-17.61v-59.94h7.11v59.94c0,5.77,4.74,10.51,10.51,10.51h88.07V35.23h7.11Z"/>
      <path class="cls-1" d="M336.86,112.79c-9.77,0-17.61-7.85-17.61-17.61v-42.33c0-9.62,7.84-17.61,17.61-17.61h81.11v7.1h-81.11c-5.77,0-10.51,4.74-10.51,10.51v42.33c0,5.77,4.74,10.51,10.51,10.51h88.07V0h7.11v112.79h-95.17Z"/>
      <path class="cls-1" d="M559.9,70.45v-17.61c0-5.77-4.74-10.51-10.51-10.51h-77.56c-5.77,0-10.51,4.74-10.51,10.51v42.33c0,5.77,4.74,10.51,10.51,10.51h95.17v7.11h-95.17c-9.77,0-17.61-7.85-17.61-17.61v-42.33c0-9.62,7.84-17.61,17.61-17.61h77.56c9.62,0,17.61,7.99,17.61,17.61v24.72h-98.73v-7.11h91.62Z"/>
    </g>
  </g>
</svg>